<mxfile host="app.diagrams.net" modified="2024-01-02T10:24:04.534Z" agent="Mozilla/5.0 (Windows NT 10.0; Win64; x64) AppleWebKit/537.36 (KHTML, like Gecko) Chrome/120.0.0.0 Safari/537.36 Edg/120.0.0.0" version="22.1.16" etag="0xO1PFHHZ2k2So8s_0oC" type="device">
  <diagram id="GAX37I1bjEE8xK3fuxZ4" name="第 1 页">
    <mxGraphModel dx="616" dy="361" grid="1" gridSize="10" guides="1" tooltips="1" connect="1" arrows="1" fold="1" page="1" pageScale="1" pageWidth="827" pageHeight="1169" math="0" shadow="0">
      <root>
        <mxCell id="0" />
        <mxCell id="1" parent="0" />
        <mxCell id="SmcpqMNBpGKa288nzYjd-12" value="" style="rounded=0;whiteSpace=wrap;html=1;fillColor=none;strokeColor=#86B0ED;" vertex="1" parent="1">
          <mxGeometry x="460" y="140" width="360" height="100" as="geometry" />
        </mxCell>
        <mxCell id="SmcpqMNBpGKa288nzYjd-5" style="edgeStyle=orthogonalEdgeStyle;rounded=0;orthogonalLoop=1;jettySize=auto;html=1;entryX=0;entryY=0.5;entryDx=0;entryDy=0;" edge="1" parent="1" source="SmcpqMNBpGKa288nzYjd-1" target="SmcpqMNBpGKa288nzYjd-2">
          <mxGeometry relative="1" as="geometry" />
        </mxCell>
        <mxCell id="SmcpqMNBpGKa288nzYjd-1" value="&lt;font style=&quot;font-size: 18px;&quot;&gt;校外電腦&lt;/font&gt;" style="rounded=0;whiteSpace=wrap;html=1;fillColor=#d5e8d4;strokeColor=#82b366;" vertex="1" parent="1">
          <mxGeometry x="80" y="160" width="120" height="60" as="geometry" />
        </mxCell>
        <mxCell id="SmcpqMNBpGKa288nzYjd-2" value="ZeroTier官方伺服器" style="rounded=0;whiteSpace=wrap;html=1;fillColor=#ffe6cc;strokeColor=#d79b00;" vertex="1" parent="1">
          <mxGeometry x="280" y="160" width="120" height="60" as="geometry" />
        </mxCell>
        <mxCell id="SmcpqMNBpGKa288nzYjd-7" style="edgeStyle=orthogonalEdgeStyle;rounded=0;orthogonalLoop=1;jettySize=auto;html=1;entryX=0;entryY=0.5;entryDx=0;entryDy=0;" edge="1" parent="1" source="SmcpqMNBpGKa288nzYjd-3" target="SmcpqMNBpGKa288nzYjd-4">
          <mxGeometry relative="1" as="geometry" />
        </mxCell>
        <mxCell id="SmcpqMNBpGKa288nzYjd-3" value="&lt;font style=&quot;font-size: 18px;&quot;&gt;校內電腦&lt;/font&gt;" style="rounded=0;whiteSpace=wrap;html=1;fillColor=#dae8fc;strokeColor=#6c8ebf;" vertex="1" parent="1">
          <mxGeometry x="480" y="160" width="120" height="60" as="geometry" />
        </mxCell>
        <mxCell id="SmcpqMNBpGKa288nzYjd-4" value="&lt;font style=&quot;font-size: 18px;&quot;&gt;其他校內服務&lt;/font&gt;" style="rounded=0;whiteSpace=wrap;html=1;fillColor=#dae8fc;strokeColor=#6c8ebf;" vertex="1" parent="1">
          <mxGeometry x="680" y="160" width="120" height="60" as="geometry" />
        </mxCell>
        <mxCell id="SmcpqMNBpGKa288nzYjd-6" style="edgeStyle=orthogonalEdgeStyle;rounded=0;orthogonalLoop=1;jettySize=auto;html=1;entryX=0;entryY=0.5;entryDx=0;entryDy=0;" edge="1" parent="1" source="SmcpqMNBpGKa288nzYjd-2" target="SmcpqMNBpGKa288nzYjd-3">
          <mxGeometry relative="1" as="geometry" />
        </mxCell>
        <mxCell id="SmcpqMNBpGKa288nzYjd-10" value="Wireguard VPN&lt;br&gt;10.8.0.x" style="text;strokeColor=none;align=center;fillColor=none;html=1;verticalAlign=middle;whiteSpace=wrap;rounded=0;" vertex="1" parent="1">
          <mxGeometry x="610" y="175" width="60" height="45" as="geometry" />
        </mxCell>
        <mxCell id="SmcpqMNBpGKa288nzYjd-11" value="" style="group" vertex="1" connectable="0" parent="1">
          <mxGeometry x="400" y="100" width="90" height="150" as="geometry" />
        </mxCell>
        <mxCell id="SmcpqMNBpGKa288nzYjd-8" value="" style="rounded=0;whiteSpace=wrap;html=1;" vertex="1" parent="SmcpqMNBpGKa288nzYjd-11">
          <mxGeometry x="40" y="30" width="10" height="120" as="geometry" />
        </mxCell>
        <mxCell id="SmcpqMNBpGKa288nzYjd-9" value="台科防火牆" style="text;strokeColor=none;align=center;fillColor=none;html=1;verticalAlign=middle;whiteSpace=wrap;rounded=0;" vertex="1" parent="SmcpqMNBpGKa288nzYjd-11">
          <mxGeometry width="90" height="30" as="geometry" />
        </mxCell>
        <mxCell id="SmcpqMNBpGKa288nzYjd-13" value="&lt;font color=&quot;#3399ff&quot;&gt;台科校內網路140.118.x.x&lt;/font&gt;" style="text;strokeColor=none;align=center;fillColor=none;html=1;verticalAlign=middle;whiteSpace=wrap;rounded=0;" vertex="1" parent="1">
          <mxGeometry x="530" y="110" width="190" height="40" as="geometry" />
        </mxCell>
        <mxCell id="SmcpqMNBpGKa288nzYjd-14" value="" style="rounded=0;whiteSpace=wrap;html=1;fillColor=none;strokeColor=#FFB570;" vertex="1" parent="1">
          <mxGeometry x="70" y="150" width="540" height="80" as="geometry" />
        </mxCell>
        <mxCell id="SmcpqMNBpGKa288nzYjd-15" value="&lt;font color=&quot;#ffb570&quot;&gt;Zerotier區網 172.28.0.x&lt;/font&gt;" style="text;strokeColor=none;align=center;fillColor=none;html=1;verticalAlign=middle;whiteSpace=wrap;rounded=0;" vertex="1" parent="1">
          <mxGeometry x="260" y="130" width="160" height="30" as="geometry" />
        </mxCell>
      </root>
    </mxGraphModel>
  </diagram>
</mxfile>
